# xmcd
#
# Track frame offsets:
#	150
#	16207
#	26863
#	36757
#	51277
#	80617
#	106099
#	118129
#	142257
#	152429
#	161398
#	174802
#	187961
#	198168
#	211314
#	230718
#
# Disc length: 3479 seconds
#
# Revision: 0
# Processed by: cddbd v1.5.2PL0 Copyright (c) Steve Scherf et al.
# Submitted via: audiograbber 1.83.01
#
DISCID=ce0d9510
DTITLE=Louis Armstrong - Music Ages - Louis Armstrong 
DYEAR=1900
DGENRE=
TTITLE0=When You're Smiling
TTITLE1=Hello Dolly
TTITLE2=So Long Dearie
TTITLE3=Blueberry Hill
TTITLE4=I Surrender Dear
TTITLE5=Basin Street Blues
TTITLE6=Faith
TTITLE7=Ojos Negros
TTITLE8=Its Been A Long, Long Time
TTITLE9=Bill Bailey
TTITLE10=Bye 'n Bye
TTITLE11=Sincerely
TTITLE12=Pretty Little Missy
TTITLE13=On The Sunny Side Of The Street
TTITLE14=When The Saints
TTITLE15=New Orleans Function
EXTD=
EXTT0=
EXTT1=
EXTT2=
EXTT3=
EXTT4=
EXTT5=
EXTT6=
EXTT7=
EXTT8=
EXTT9=
EXTT10=
EXTT11=
EXTT12=
EXTT13=
EXTT14=
EXTT15=
PLAYORDER=
